<svg xmlns="http://www.w3.org/2000/svg" viewBox="0 0 48 48" role="img" aria-label="scrapy-stealth">
  <defs>
    <clipPath id="shield-left">
      <rect x="0" y="0" width="24" height="48"/>
    </clipPath>
    <clipPath id="shield-right">
      <rect x="24" y="0" width="24" height="48"/>
    </clipPath>
  </defs>
  <!-- Shield (split black / purple like the brand mark) -->
  <path
    d="M24 2.5 41.5 9.2V23.5c0 9.8-7.2 17.5-17.5 21.3C13.7 41 6.5 33.3 6.5 23.5V9.2L24 2.5z"
    fill="#0f172a"/>
  <path
    d="M24 2.5 41.5 9.2V23.5c0 9.8-7.2 17.5-17.5 21.3C13.7 41 6.5 33.3 6.5 23.5V9.2L24 2.5z"
    fill="#7c3aed"
    clip-path="url(#shield-right)"/>
  <path
    d="M24 2.5 41.5 9.2V23.5c0 9.8-7.2 17.5-17.5 21.3C13.7 41 6.5 33.3 6.5 23.5V9.2L24 2.5z"
    fill="none"
    stroke="#cbd5e1"
    stroke-width="1.2"
    opacity="0.35"/>
  <!-- Spider body -->
  <ellipse cx="24" cy="25.5" rx="5.2" ry="6" fill="#0f172a"/>
  <ellipse cx="24" cy="25.5" rx="5.2" ry="6" fill="#7c3aed" clip-path="url(#shield-right)"/>
  <!-- S mark -->
  <path
    d="M27.2 22.2c0-1.6-1.2-2.5-3.2-2.5-1.9 0-3.1.8-3.1 2.1 0 1.2.8 1.8 2.8 2.2l1.6.3c2.8.5 4.2 1.7 4.2 3.8 0 2.4-2 3.9-5.1 3.9-3.2 0-5.3-1.5-5.5-3.9h2.5c.2 1.3 1.3 2 2.9 2 2 0 3.2-.8 3.2-2.1 0-1.2-.7-1.8-2.7-2.2l-1.7-.3c-2.9-.5-4.1-1.8-4.1-3.7 0-2.3 1.9-3.8 4.9-3.8 2.8 0 4.8 1.4 5 3.6h-2.4c-.2-1.1-1.2-1.8-2.8-1.8z"
    fill="#f8fafc"/>
  <!-- Legs -->
  <g stroke="#0f172a" stroke-width="1.4" stroke-linecap="round">
    <path d="M19 22l-5-4M19 25l-6 0M19 28l-5 4"/>
    <path d="M29 22l5-4M29 25l6 0M29 28l5 4"/>
  </g>
</svg>
